<mxfile host="app.diagrams.net" modified="2023-10-06T08:29:03.863Z" agent="Mozilla/5.0 (Windows NT 10.0; Win64; x64) AppleWebKit/537.36 (KHTML, like Gecko) Chrome/117.0.0.0 Safari/537.36" version="22.0.3" etag="BjBdmzokwcFMrVcFrjCV" type="github">
  <diagram name="Страница — 1" id="q-OQljOwlybx70e7AgT3">
    <mxGraphModel>
      <root>
        <mxCell id="0" />
        <mxCell id="1" parent="0" />
      </root>
    </mxGraphModel>
  </diagram>
</mxfile>
